# xmcd CD database file
#
# Track frame offsets:
#	150
#	12387
#	26537
#	40212
#	55257
#	68062
#	83850
#	96600
#	111175
#	123357
#	139457
#	154027
#
# Disc length: 2230 seconds
#
# Revision: 3
# Processed by: cddbd v1.5.2PL0 Copyright (c) Steve Scherf et al.
# Submitted via: CDex 1.51
#
DISCID=a408b40c
DTITLE=Various Artist - Bugg 98
DYEAR=1998
DGENRE=Dansband
TTITLE0=Lasse Stefanz - Lycklig igen
TTITLE1=Black Jack - Inget kan stoppa oss nu
TTITLE2=Lotta Engbergs - Sånt är livet
TTITLE3=Sannex - Mr Dee Jay
TTITLE4=Wizex - Bom bom
TTITLE5=Tiffany - Emmelye
TTITLE6=Lasse Stefans - Jackson
TTITLE7=BlackJack - Cannibals
TTITLE8=Wizex - En vilja av stål
TTITLE9=Tiffany - Du sa 'Bye bye bye'
TTITLE10=Sannex - So Long
TTITLE11=Lotta Engbergs - Äntligen på väg
EXTD=YEAR: 1998
EXTT0=
EXTT1=
EXTT2=
EXTT3=
EXTT4=
EXTT5=
EXTT6=
EXTT7=
EXTT8=
EXTT9=
EXTT10=
EXTT11=
PLAYORDER=
